<svg width="240" height="324" viewBox="0 0 240 324" fill="none" xmlns="http://www.w3.org/2000/svg">
<path fill-rule="evenodd" clip-rule="evenodd" d="M194.637 251.934C193.785 247.123 193.005 242.299 192.295 237.465C191.959 235.169 191.63 232.872 191.335 230.571C191.128 228.959 190.813 227.115 191.909 225.921C193.452 224.24 194.854 222.802 195.043 220.395C195.22 218.129 194.455 215.66 193.976 213.462C192.972 208.851 191.722 204.297 190.341 199.786C188.938 195.204 187.4 190.664 185.839 186.133C184.38 181.897 182.977 177.622 181.077 173.558C177.471 165.845 171.369 160.132 163.829 156.318C161.953 155.37 158.128 151.984 156.169 151.225C154.367 150.528 154.374 152.564 152.601 151.797C151.184 151.184 149.864 150.367 149.071 148.998C148.209 147.512 146.049 145.433 145.72 143.703C145.023 140.035 145.778 136.914 143.162 134.154C140.839 131.703 137.717 130.024 134.487 129.123C127.38 127.14 117.903 128.526 113.616 135.132C111.568 138.286 110.853 142.1 108.089 144.674C105.677 146.922 106.216 148.459 103.091 149.617C102.914 149.683 98.117 148.654 97.94 148.72C94.5213 147.988 91.2537 150.037 88.1172 151.225C83.4412 152.998 78.9894 155.304 74.8069 158.045C66.3733 163.573 59.1501 170.752 53.1951 178.874C47.1909 187.064 42.5322 196.244 39.2151 205.838C38.4095 208.168 37.686 210.527 37.0477 212.908C36.6905 214.241 36.3087 215.624 36.7437 216.988C37.0995 218.105 37.8909 218.936 38.8202 219.606C40.08 220.514 42.607 221.104 42.5578 222.931C42.5202 224.32 42.0493 225.781 41.8194 227.153C41.5458 228.787 41.321 230.431 41.0962 232.073C40.0737 239.544 39.2779 247.057 38.9259 254.592C38.5794 262.011 38.2919 269.581 38.8063 276.998C38.8403 277.487 38.9861 277.936 39.2212 278.315C39.0017 278.399 38.9848 278.808 39.258 278.866C39.4494 278.907 39.6404 278.948 39.8318 278.988C40.2294 279.289 40.7252 279.474 41.2959 279.492C41.6827 279.504 42.0693 279.521 42.4557 279.541C46.5334 280.394 50.6105 281.199 54.7414 281.809C59.7628 282.551 64.799 283.155 69.8508 283.646C80.2314 284.656 90.5303 284.321 100.925 283.777C111.303 283.234 121.675 283.107 132.064 283.377C142.462 283.648 152.857 284.1 163.257 284.285C174.877 284.492 186.479 284.174 198.064 283.25C199.653 283.124 200.636 281.859 200.323 280.281C198.445 270.825 196.318 261.431 194.637 251.934Z" fill="#FFDBB4"/>
<path fill-rule="evenodd" clip-rule="evenodd" d="M88.1167 151.225L88.3437 151.138C91.4108 149.939 94.6031 148.005 97.9395 148.719C98.0575 148.676 100.228 149.118 101.715 149.399L100.304 150.873L97.8132 151.352C106.406 165.54 116.569 172.633 128.302 172.633C140.035 172.633 148.938 165.54 155.012 151.352L155.84 151.123C155.943 151.147 156.052 151.18 156.168 151.225C158.128 151.983 161.953 155.37 163.828 156.318C171.369 160.132 177.47 165.844 181.077 173.558C182.914 177.487 184.285 181.612 185.693 185.709L185.839 186.133C187.399 190.664 188.938 195.203 190.341 199.786C191.662 204.101 192.863 208.455 193.843 212.86L193.976 213.461C194.454 215.66 195.22 218.129 195.042 220.394C194.975 221.252 194.754 221.987 194.427 222.653L177.431 228.771L185.528 284.017C178.111 284.335 170.688 284.417 163.257 284.285C152.856 284.1 142.462 283.647 132.064 283.377C121.99 283.115 111.931 283.226 101.868 283.729L99.312 283.859C89.4642 284.352 79.694 284.604 69.8503 283.646L69.1796 283.58V283.58L69.1795 275.499L72.6373 230.5L55.1137 227.201L37.912 218.842C37.3922 218.323 36.9751 217.716 36.7432 216.988C36.3403 215.724 36.6381 214.445 36.9681 213.204L37.0472 212.908C37.6855 210.526 38.4091 208.168 39.2146 205.837C42.5317 196.243 47.1904 187.064 53.1946 178.874C59.1496 170.751 66.3729 163.573 74.8065 158.045C78.9889 155.304 83.4407 152.997 88.1167 151.225Z" fill="#FDEA6B"/>
<path fill-rule="evenodd" clip-rule="evenodd" d="M94.6976 148.487C95.7721 148.44 96.8677 148.614 97.9397 148.72C98.0331 148.729 98.0686 148.873 97.9634 148.895C96.0449 149.296 94.1475 149.844 92.2633 150.401L91.4566 150.64C89.3318 151.269 87.2694 151.917 85.2125 152.756C81.1131 154.427 77.2196 156.683 73.6363 159.275C59.838 169.255 49.8514 184.366 43.5493 200.01C41.8378 204.259 40.3877 208.613 39.213 213.04C38.9274 214.118 38.6587 215.199 38.4039 216.284C38.3291 216.602 38.0031 217.417 38.1818 217.742C38.3399 218.03 38.9542 218.207 39.2396 218.357L40.2033 218.857C42.0829 219.826 45.2138 221.419 45.5278 221.574L46.0175 221.815C54.0268 225.743 62.5846 229.074 71.5976 229.305L71.6682 228.535V228.535C72.07 224.278 72.5973 219.999 73.7483 215.873C73.8102 215.651 74.0923 215.726 74.118 215.923C74.7592 220.807 74.5543 225.73 74.3306 230.637C73.9344 239.328 73.4084 248.014 72.9408 256.702C72.7068 261.048 72.4042 265.391 72.1311 269.735C71.8575 274.087 71.7689 278.544 71.1442 282.861C71.005 283.823 69.8785 284.346 69.0254 284.244C68.0815 284.132 67.3553 283.3 67.3509 282.347C67.3395 279.832 67.6554 277.288 67.8309 274.78C67.9976 272.397 68.1765 270.015 68.3599 267.633C69.0301 258.94 69.801 250.257 70.514 241.568C70.7667 238.486 71.0396 235.407 71.3206 232.328C61.7728 232.02 52.8529 228.482 44.3434 224.348C44.2203 227.146 43.9228 229.938 43.6349 232.724C42.831 240.499 42.1222 248.271 41.5917 256.07C41.3238 260.009 41.1288 263.953 40.9589 267.897C40.8755 269.835 40.8075 271.774 40.7553 273.714C40.7378 274.36 40.722 275.007 40.7081 275.653L40.6791 277.135C40.6553 278.073 40.5599 278.942 39.7706 279.626C38.9688 280.32 37.8858 280.356 37.0923 279.626C36.0301 278.647 36.2179 277.314 36.2494 276C36.2756 274.891 36.307 273.783 36.3436 272.675C36.4169 270.458 36.5105 268.243 36.6244 266.028C37.0228 258.285 37.819 250.573 38.8595 242.892L39.2657 239.927C40.0242 234.415 40.8569 228.777 42.5525 223.467C41.8923 223.139 41.234 222.808 40.5782 222.476C39.415 221.887 38.2123 221.334 37.0815 220.683C36.1845 220.168 35.4108 219.46 35.1611 218.416C34.8826 217.252 35.3085 215.98 35.5914 214.845L35.616 214.745C35.8934 213.602 36.1921 212.464 36.5073 211.331C37.7855 206.736 39.366 202.231 41.2156 197.836C44.9192 189.038 49.6995 180.678 55.5387 173.12C60.7949 166.317 67.004 160.147 74.2813 155.52C77.8391 153.258 81.6305 151.4 85.6401 150.087C87.5143 149.473 89.5535 148.939 91.5157 148.719C92.5742 148.601 93.6341 148.533 94.6976 148.487ZM113.735 134.544C115.012 133.172 117.549 134.592 116.936 136.408C115.494 140.682 113.198 144.579 109.614 147.387C106.245 150.027 102.228 151.742 97.9012 151.376C97.8678 151.373 97.8389 151.364 97.8133 151.352L98.1861 151.858C101.113 155.819 104.201 159.725 107.923 162.963C115.506 169.559 125.831 173.117 135.8 170.586C143.644 168.595 150.555 162.39 152.587 154.482C152.296 154.613 151.95 154.657 151.57 154.575C149.943 154.221 148.334 152.511 147.285 151.284C146.15 149.957 145.264 148.524 144.615 146.904C143.426 143.94 143.045 140.123 144.668 137.251C144.868 136.897 145.33 137.096 145.369 137.441L145.431 137.981C145.744 140.672 146.134 143.275 147.402 145.729C148.023 146.929 148.767 148.101 149.673 149.106C150.157 149.644 150.683 150.158 151.25 150.609C151.803 151.048 152.472 151.366 152.967 151.87L153.058 151.967L153.061 151.95C153.186 150.884 153.933 150.415 154.664 150.444C155.371 150.473 156.201 150.784 156.523 150.933L156.554 150.948C161.487 153.317 166.031 156.405 170.307 159.831C179.15 166.916 185.775 176.179 188.985 187.086C190.561 192.439 191.465 197.956 192.42 203.446L193.007 206.81C193.898 211.878 194.893 217.046 196.904 221.761C197.424 222.981 197.023 224.125 195.747 224.605C194.155 225.203 192.556 225.783 190.956 226.356C191.742 229.73 192.221 233.221 192.81 236.611C194.062 243.818 195.596 250.979 196.911 258.176C197.584 261.856 198.191 265.548 198.862 269.229C199.186 271.001 199.523 272.771 199.852 274.543C200.029 275.498 200.189 276.456 200.358 277.413L200.387 277.571C200.484 278.076 200.605 278.598 200.467 279.103C200.308 279.679 199.859 280.086 199.458 280.499C199.128 280.839 198.65 280.841 198.246 280.655L198.113 280.594C197.39 280.256 196.824 279.919 196.568 279.103C196.405 278.587 196.347 278.005 196.241 277.473C196.037 276.453 195.844 275.432 195.662 274.408C195.298 272.36 194.942 270.31 194.595 268.258L194.271 266.337C193.157 259.715 192.1 253.054 191.565 246.362C191.328 243.394 191.077 240.428 190.823 237.461L190.633 235.236C190.392 232.42 190.098 229.532 190.056 226.678L189.099 227.018V227.018L184.427 228.67V228.67C183.269 229.079 181.795 229.918 180.548 229.766C179.938 229.691 179.473 229.499 179.114 229.15C179.544 235.223 180.126 241.285 180.902 247.316C181.608 252.804 182.391 258.284 183.315 263.74C183.773 266.442 184.244 269.14 184.755 271.832C185.01 273.178 185.274 274.522 185.545 275.865C185.681 276.535 185.842 277.206 185.948 277.881C186.068 278.655 185.856 279.131 185.423 279.767C185.069 280.29 184.359 280.558 183.784 280.198C183.022 279.719 182.625 279.305 182.4 278.434C182.197 277.643 182.073 276.817 181.915 276.016C181.624 274.537 181.343 273.056 181.072 271.573C180.504 268.472 179.981 265.364 179.513 262.246C177.867 251.262 176.822 240.187 176.294 229.093C176.033 223.62 175.953 218.142 175.999 212.663C176.023 209.854 176.115 207.038 176.313 204.236C176.514 201.401 176.933 198.622 177.306 195.813C177.319 195.714 177.459 195.708 177.465 195.813C177.641 198.962 177.919 202.107 178.054 205.264C178.184 208.276 178.241 211.293 178.344 214.307C178.48 218.268 178.667 222.231 178.916 226.192C179.366 225.699 180.045 225.415 180.724 225.526C181.707 225.32 182.766 224.803 183.704 224.49L187.24 223.309V223.309C189.098 222.688 190.957 222.071 192.822 221.473C191.154 215.861 190.012 210.165 189.036 204.386L188.601 201.787C187.74 196.672 186.812 191.554 185.252 186.6C183.613 181.392 181.159 176.55 177.904 172.165C174.695 167.844 170.792 164.038 166.773 160.479C163.332 157.433 159.651 154.682 156.141 151.718C156.178 151.915 156.186 152.131 156.154 152.369C155.407 157.832 152.558 162.92 148.588 166.704C140.612 174.307 128.805 175.884 118.596 172.319C108.72 168.87 99.9894 160.703 96.9046 150.597C96.8518 150.424 97.0834 150.356 97.1763 150.483C97.3475 150.717 97.5194 150.952 97.6916 151.186C97.68 151.093 97.7284 150.992 97.8433 150.947C101.442 149.557 104.977 147.586 107.675 144.796C108.99 143.437 110.137 141.896 111.043 140.235C111.477 139.439 111.867 138.615 112.178 137.764L112.257 137.544C112.634 136.477 112.949 135.389 113.735 134.544Z" fill="black"/>
<path fill-rule="evenodd" clip-rule="evenodd" d="M164.086 102.294C163.632 98.2964 164.22 89.9404 164.259 89.4328C164.508 86.2234 163.008 73.5502 160.172 74.7179C155.416 70.943 149.08 70.1094 143.156 69.7112C130.851 68.884 117.761 70.783 108.259 79.0848C103.56 83.3962 98.9853 89.6667 99.353 96.1958C95.0837 102.385 89.0649 110.874 94.3843 118.109C96.1925 120.421 99.0663 121.281 101.338 123.032C105.907 126.726 108.773 132.028 113.385 135.701C125.605 146.708 146.353 149.008 158.358 136.488C167.642 127.42 166.141 113.854 164.508 102.294C163.41 94.5222 164.972 110.093 164.086 102.294Z" fill="#FFDBB4"/>
<path fill-rule="evenodd" clip-rule="evenodd" d="M126.718 52.7582C130.009 52.0924 133.388 51.6782 136.749 51.8029L137.008 51.813C139.537 51.9143 142.739 52.1384 144.945 53.6124C145.072 53.4848 145.276 53.4193 145.461 53.5078C148.082 54.7622 150.965 55.6691 153.726 56.5703C156.473 57.4671 159.323 58.059 162.203 58.2977C163.286 58.3875 164.214 59.5603 163.528 60.6122C163.364 60.8628 163.205 61.116 163.047 61.3698C163.312 61.3422 163.577 61.3136 163.841 61.2868C164.713 61.1989 165.583 62.1311 165.532 62.9816C165.499 63.5165 165.442 64.0451 165.357 64.5674C165.688 64.5604 166.018 64.6103 166.337 64.7453C167.951 65.4286 167.839 67.3559 167.718 68.8223C167.551 70.8572 166.791 73.0125 165.382 74.5355C166.434 75.6313 167.179 76.94 167.624 78.4943C167.946 79.6292 168.126 80.8382 168.037 82.0196L168.009 82.3733C167.899 83.6554 167.682 85.0749 166.762 85.9972C166.289 86.4728 165.707 86.6461 165.153 86.5911C165.488 89.5458 165.703 92.5174 165.906 95.4784L166 96.8936C166.452 103.737 166.791 110.625 166.702 117.48C166.62 123.886 165.357 130.104 161.438 135.305C157.869 140.042 152.744 143.533 146.946 144.86C143.822 145.577 140.632 145.628 137.47 145.171C135.937 144.949 134.394 144.609 132.939 144.072C131.329 143.476 130.171 142.599 129.088 141.284C128.575 140.661 128.822 139.334 129.842 139.458C131.386 139.646 132.795 139.872 134.275 140.33L134.487 140.397C135.96 140.87 137.487 141.223 139.028 141.373C142.184 141.68 145.388 141.371 148.412 140.411C153.334 138.847 157.574 135.362 160.291 130.983C163.517 125.792 163.882 119.9 163.835 113.931C163.785 107.382 163.573 100.829 163.226 94.2862L163.167 93.1958C162.983 89.829 162.806 86.4601 162.651 83.0912C162.602 82.0344 162.528 80.9692 162.395 79.9146C161.179 79.2002 160.089 78.2153 159.379 77C157.951 77.5918 156.45 78.0188 155.069 78.359C151.87 79.1478 148.549 79.3393 145.293 78.8453C144.414 79.2091 143.519 79.5289 142.609 79.804C142.363 79.9133 142.118 80.0207 141.872 80.1259C139.679 81.0664 137.455 81.8632 135.14 82.4465L134.572 82.5887C133.354 82.8897 132.031 83.1862 130.734 83.2793C130.521 83.3617 130.291 83.4314 130.04 83.4927C128.86 83.7802 127.635 83.871 126.425 83.7696C125.246 83.6703 124.395 82.4761 125.044 81.3581C125.518 80.5423 125.997 79.7286 126.48 78.917C124.8 79.6187 123.064 80.202 121.315 80.6966C119.548 81.1954 117.756 81.6159 115.962 82.0027C115.002 82.2077 114.039 82.3895 113.082 82.5945C112.397 82.7403 111.345 82.8164 110.786 83.2687C110.169 83.7654 109.994 84.9236 109.759 85.6379C109.451 86.5658 109.163 87.4978 108.899 88.4404C108.374 90.3215 107.944 92.23 107.611 94.1575C107.278 96.0871 107.054 98.0357 106.93 99.9907C106.806 101.944 106.86 103.909 106.66 105.854C106.553 106.885 105.448 107.415 104.632 106.695C104.537 106.61 104.44 106.525 104.345 106.438L104.202 106.308C103.504 105.674 102.827 105.002 102.269 104.245C102.168 104.106 102.071 103.96 101.98 103.812C101.965 103.812 101.953 103.808 101.938 103.797L101.783 103.68C100.078 102.408 97.2295 100.749 95.567 102.863C95.0372 103.536 94.7659 104.394 94.5408 105.221L94.1458 106.701C93.8903 107.668 93.6498 108.639 93.5091 109.628C93.1908 111.843 93.351 114.396 94.8713 116.172C95.4784 116.882 96.3154 117.389 97.2491 117.522C97.7701 117.594 98.2845 117.505 98.801 117.44C99.3259 117.374 99.8317 117.48 100.357 117.429C101.192 117.347 101.556 118.349 101.244 118.978C101.076 119.317 100.877 119.608 100.652 119.856C100.833 120.012 101.006 120.181 101.173 120.359C101.666 120.517 102.109 120.857 102.44 121.308C102.708 121.671 102.846 122.066 102.87 122.483C102.899 122.586 102.924 122.692 102.948 122.8L103.4 123.536C103.5 123.697 103.599 123.856 103.698 124.013C104.849 125.83 106.127 127.369 107.715 128.819C109.243 130.214 110.902 131.463 112.338 132.959L112.507 133.137C113.846 134.551 115.257 136.263 114.733 138.319C114.598 138.847 113.862 139.228 113.381 138.871C111.836 137.721 111.058 135.899 109.747 134.504C108.397 133.067 106.903 131.776 105.549 130.343C104.269 128.99 103.26 127.458 102.499 125.771C102.195 126.107 101.752 126.346 101.139 126.439C100.085 126.598 99.1022 125.978 98.6429 125.063C98.3475 125.194 98.0462 125.313 97.7424 125.406C96.1444 125.896 95.139 124.114 95.742 122.798C96.0643 122.092 96.467 121.479 96.9668 120.963C95.4044 120.747 93.8148 119.938 92.7881 118.928C90.2121 116.389 89.8579 112.575 90.4377 109.182C90.7455 107.384 91.2765 105.564 91.9661 103.875C92.0861 103.582 92.2149 103.286 92.3559 102.994C92.2779 102.992 92.1978 102.958 92.1472 102.893C91.6813 102.254 91.1144 101.732 90.7685 101.018C90.4501 100.363 90.0961 99.6991 89.8451 99.0164C89.3288 97.6194 89.0758 96.0427 88.9071 94.5654C88.5593 91.5409 88.694 88.5355 89.1559 85.5301C89.942 80.4112 91.8411 75.5126 94.6389 71.2141C94.4866 71.1339 94.3406 71.037 94.2046 70.9225L94.1374 70.8637L94.0282 70.7648C93.2298 70.0405 93.2987 68.683 94.0282 67.9494L94.2586 67.7179C94.5503 67.4273 94.8019 67.1972 95.2731 66.8808C95.3427 66.8341 95.4137 66.7901 95.4856 66.7491C95.2389 66.2922 95.1533 65.7579 95.3252 65.1684C95.9239 63.115 98.8712 63.1877 100.739 64.0832C102.806 62.2341 105.098 60.6289 107.582 59.3291C113.497 56.2349 120.187 54.077 126.718 52.7582ZM96.1386 106.843C97.2433 106.481 98.7106 107.24 99.7036 107.696C100.962 108.276 102.033 109.132 103.07 110.036C103.587 110.488 103.679 111.228 103.551 111.86C103.538 111.923 103.526 111.989 103.511 112.055C103.374 112.729 102.623 113.259 101.959 113.24C100.57 113.202 99.9081 112 99.1215 110.981C99.029 111.146 98.913 111.298 98.7694 111.412L98.6725 111.488C98.3461 111.737 97.9863 111.936 97.5551 111.917C97.2494 111.902 96.9566 111.824 96.6865 111.683C96.0119 111.325 95.7148 110.45 95.898 109.738C96.0119 109.29 96.2733 108.939 96.6148 108.696L96.4875 108.609C96.2151 108.419 95.9667 108.218 95.7731 107.923L95.7294 107.853H95.7463C95.5354 107.489 95.6727 106.995 96.1386 106.843Z" fill="#694D3D"/>
<path fill-rule="evenodd" clip-rule="evenodd" d="M152.446 123.814C151.749 124.726 150.487 125.424 149.073 125.758C147.726 126.076 146.237 126.063 144.952 125.574L144.842 125.53C143.881 125.131 142.959 124.325 142.609 123.484C142.47 123.149 142.423 122.809 142.518 122.492C142.604 122.207 142.804 121.944 143.139 121.719C143.244 121.648 143.385 121.643 143.519 121.666C143.686 121.696 143.85 121.774 143.949 121.879C144.499 122.464 145.297 123.034 146.241 123.024C146.969 123.017 147.564 122.729 148.14 122.404L148.546 122.172C148.937 121.948 149.333 121.739 149.782 121.643C150.585 121.471 151.56 121.785 152.153 122.302C152.412 122.528 152.6 122.793 152.651 123.078C152.694 123.318 152.634 123.568 152.446 123.814ZM148.271 107.866C149.866 108.837 152.297 111.099 150.581 113.504C148.561 115.624 145.652 113.193 144.219 112.093C142.89 111.241 141.396 113.433 142.63 114.428C152.987 122.099 157.19 108.12 149.078 106.726C148.185 106.572 147.853 107.566 148.271 107.866ZM130.272 92.9565L130.731 92.8308L131.198 92.7046L131.514 92.621C133.685 92.0526 136.079 91.5524 138.232 91.7966C139.017 91.8858 139.654 92.3277 139.765 93.1505C139.859 93.8448 139.41 94.7405 138.647 94.8639C136.119 95.2731 133.53 95.1404 130.99 95.5622C129.726 95.7721 128.47 96.0327 127.21 96.2675C126.252 96.4463 125.262 96.5091 124.296 96.6536L124.518 96.6845C124.596 96.6951 124.576 96.8259 124.5 96.8206C124.181 96.7888 123.862 96.7838 123.543 96.8062L123.406 96.8174C123.197 96.8468 123.074 96.5978 123.26 96.4715C124.438 95.6723 125.437 94.8062 126.755 94.2172C127.895 93.7078 129.069 93.2879 130.272 92.9565ZM150.034 91.7309C151.703 90.0431 155.252 90.6917 157.238 91.4637C158.371 91.9046 159.448 92.462 160.346 93.2957L160.433 93.3778L160.568 93.5074C161.174 94.1007 161.849 94.9172 161.753 95.7725C161.739 95.9029 161.668 96.052 161.52 96.0782C160.725 96.2191 159.944 95.7994 159.21 95.5468L158.723 95.3799C157.993 95.131 157.258 94.8932 156.505 94.7215C155.569 94.5085 154.614 94.3852 153.652 94.3975C152.681 94.4102 151.637 94.6845 150.711 94.2986C149.679 93.8685 149.144 92.6308 150.034 91.7309ZM133.545 105.343C133.12 105.779 132.557 106.024 131.837 105.878C131.275 105.764 130.204 105.198 129.349 104.327C128.763 103.731 128.274 102.986 128.141 102.123C128.11 101.923 128.004 101.794 127.864 101.713C127.754 101.65 127.609 101.617 127.45 101.633C127.316 101.647 127.173 101.696 127.063 101.76C126.853 101.883 126.767 102.057 126.75 102.188C126.582 103.444 127.067 104.69 127.823 105.741C128.843 107.159 130.342 108.199 131.222 108.442C132.729 108.859 134.317 108.527 135.488 107.478C136.425 106.639 136.905 105.545 137.35 104.421L137.436 104.203C137.536 103.948 137.635 103.695 137.741 103.445C137.952 102.943 137.884 102.509 137.679 102.171C137.453 101.796 137.034 101.532 136.568 101.451C136.138 101.376 135.677 101.458 135.313 101.721C135.006 101.944 134.758 102.296 134.67 102.817C134.527 103.663 134.195 104.635 133.609 105.276L133.545 105.343ZM159.389 100.442C159.037 100.259 158.763 100.204 158.373 100.321C158.158 100.386 157.945 100.51 157.778 100.676C157.613 100.842 157.494 101.047 157.447 101.275C157.333 101.838 157.026 102.365 156.587 102.708C156.212 103.001 155.739 103.157 155.214 103.069C154.648 102.975 154.109 102.611 153.737 102.183C153.633 102.064 153.549 101.931 153.467 101.796L153.418 101.715C153.234 101.413 153.057 101.132 152.804 100.91C152.708 100.825 152.564 100.767 152.424 100.767C152.368 100.767 152.31 100.776 152.255 100.793C151.691 101.359 151.583 101.788 151.601 102.214C151.62 102.661 151.796 103.113 152.081 103.535C152.748 104.524 154.014 105.335 154.869 105.519C156.04 105.771 157.202 105.469 158.134 104.815C159.093 104.142 159.804 103.097 160.025 101.92C160.079 101.636 160.056 101.33 159.948 101.064C159.842 100.805 159.659 100.583 159.389 100.442Z" fill="black"/>
<path fill-rule="evenodd" clip-rule="evenodd" d="M163.095 111.465C159.925 112.993 155.501 110.739 153.369 108.379C152.593 107.52 151.995 105.061 152.293 103.502C153.102 99.2789 156.14 96.7444 159.347 95.8789C163.793 94.6789 168.267 97.7189 167.745 101.306C167.251 104.706 166.502 109.638 163.095 111.465M141.514 103.353C141.26 107.955 137.566 111.983 133.15 113.177C126.036 115.163 122.52 110.16 120.928 104.77C120.769 104.235 120.397 102.6 121.396 101.198C125.322 95.6828 134.874 96.6229 139.644 98.137C141.041 99.4729 141.612 101.401 141.514 103.353M166.541 95.4154C166.539 95.4182 166.536 95.4205 166.534 95.4233C166.518 95.4133 166.502 95.4032 166.485 95.3935C166.503 95.4011 166.523 95.4076 166.541 95.4154M172.493 95.9474C172.08 91.2617 157.383 93.0559 155.665 93.4399C150.976 94.8196 146.926 98.5732 141.683 96.9232C136.25 90.8652 117.957 92.6025 114.122 95.6884C113.396 95.4035 112.513 95.5564 111.578 95.8252C106.775 95.6517 84.849 97.308 89.3338 103.44C90.0145 103.913 90.6945 103.432 90.7133 102.459C114.093 94.0162 111.827 101.924 114.599 101.001C115.023 101.123 115.464 101.2 115.851 101.281C117.997 101.972 118.726 101.758 119.008 104.168C120.95 122.778 145.723 116.355 143.691 101.09C145.703 100.98 147.462 100.109 149.589 100.959C151.066 115.339 162.634 115.919 166.115 110.934C168.74 107.475 167.699 102.253 171.307 99.5316C172.731 100.724 172.823 96.6995 172.493 95.9474" fill="black"/>
</svg>
