<svg width="240" height="324" viewBox="0 0 240 324" fill="none" xmlns="http://www.w3.org/2000/svg">
<path fill-rule="evenodd" clip-rule="evenodd" d="M120.11 291.643C102.727 291.643 85.4382 290.788 68.7043 289.102L68.6969 289.069L67.8083 288.961C65.2797 288.646 62.6946 288.398 60.1947 288.157C53.6 287.523 46.7802 286.867 40.4194 284.92L39.2957 284.576L39.1856 284.858C39.0202 284.772 38.8465 284.683 38.6619 284.598C39.6626 268.247 41.3321 252.199 42.8397 238.612L42.9016 238.055L42.5325 237.635C40.401 235.207 39.6157 233.172 40.1346 231.419C44.3851 222.543 45.2862 211.22 46.1576 200.269C47.9642 177.571 49.6704 156.132 79.1382 155.204L79.1853 155.201L79.4961 155.18C85.6412 154.759 91.9955 154.323 97.6719 151.496L98.3334 151.167L98.3727 150.429C98.4204 149.539 99.5165 148.479 100.397 147.629C100.7 147.336 100.986 147.059 101.244 146.782L101.297 146.724L101.344 146.66C102.672 144.813 104.232 143.711 105.517 143.711C107.389 143.711 108.295 146.06 108.669 147.461L109.259 149.669L110.82 148C114.487 144.078 116.241 139.766 116.044 135.168L116.177 135.126L116.007 134.028C115.685 132.121 115.899 130.707 116.644 129.825C117.517 128.792 119.228 128.29 121.875 128.29C123.624 128.29 125.528 128.51 127.208 128.705C127.757 128.768 128.286 128.83 128.786 128.881C132.148 129.235 135.585 129.873 138.909 130.489L139.375 130.576L139.059 131.435L139.867 131.994C140.943 132.738 141.744 134.231 142.066 136.089L142.08 136.173L142.106 136.255C142.584 137.77 142.765 139.462 142.957 141.254C143.28 144.268 143.613 147.385 145.417 150.069L146.501 151.681L147.54 150.039C148.047 149.238 148.726 148.849 149.618 148.849C152.021 148.849 154.957 151.508 155.479 153.569L155.646 154.231L156.291 154.455C160.717 155.997 164.364 157.122 167.582 158.115C175.661 160.608 179.717 161.859 182.319 165.526C184.996 169.298 186.35 175.883 188.604 188.983C191.07 203.179 192.718 217.77 194.311 231.881C196.312 249.605 198.38 267.926 202.093 285.698C201.835 285.964 201.639 286.228 201.506 286.491C199.867 286.636 198.2 286.767 196.578 286.895C193.88 287.108 191.089 287.327 188.362 287.613L187.757 287.677L187.623 287.886C187.374 287.907 187.129 287.931 186.888 287.955C186.503 287.994 186.132 288.031 185.77 288.052L185.66 287.833L184.781 287.932C162.881 290.394 141.123 291.643 120.11 291.643" fill="#FFDBB4"/>
<path fill-rule="evenodd" clip-rule="evenodd" d="M105.517 143.711C107.389 143.711 108.295 146.06 108.669 147.461L109.259 149.669L110.17 148.695L108.512 151.596L121.416 163.443L121.91 163.792C127.183 167.487 130.774 169.334 132.68 169.334C134.646 169.334 140.497 164.517 150.234 154.881L144.976 151.596L145.45 150.118L146.501 151.681L147.54 150.039C148.047 149.238 148.726 148.849 149.618 148.849C152.021 148.849 154.957 151.508 155.479 153.569L155.646 154.231L156.818 154.638C160.31 155.845 163.312 156.793 166.003 157.627L169.445 158.691C176.301 160.823 179.925 162.152 182.319 165.526C184.942 169.223 186.296 175.62 188.47 188.205L188.604 188.983C190.958 202.534 192.566 216.445 194.093 229.954L194.687 235.211C196.577 251.893 198.612 269.036 202.093 285.698C201.835 285.964 201.639 286.228 201.506 286.491C200.413 286.588 199.308 286.678 198.212 286.766L195.098 287.012C192.867 287.19 190.593 287.379 188.362 287.613L187.757 287.677L187.623 287.886C187.457 287.9 187.293 287.915 187.13 287.931L186.888 287.955C186.503 287.994 186.132 288.031 185.77 288.052L185.66 287.833L184.781 287.932C162.881 290.394 141.123 291.643 120.11 291.643C102.727 291.643 85.4382 290.788 68.7043 289.102L68.6969 289.069L67.8083 288.961C65.7854 288.709 63.7264 288.5 61.7037 288.303L58.7783 288.021C52.6281 287.423 46.3259 286.728 40.4194 284.92L39.2957 284.576L39.1856 284.858C39.0202 284.772 38.8465 284.683 38.6619 284.598L38.7303 283.496C39.7376 267.527 41.366 251.893 42.8397 238.612L42.9016 238.055L42.5325 237.635C40.401 235.207 39.6157 233.172 40.1346 231.419C44.3851 222.543 45.2862 211.22 46.1576 200.269L46.2661 198.909C48.0254 176.948 50.2146 156.534 78.2625 155.237L79.1853 155.201L80.5825 155.105C86.3865 154.699 92.3294 154.157 97.6719 151.496L98.3334 151.167L98.3727 150.429C98.4152 149.635 99.2906 148.708 100.104 147.913L100.652 147.381C100.861 147.177 101.06 146.98 101.244 146.782L101.297 146.724L101.344 146.66C102.672 144.813 104.232 143.711 105.517 143.711Z" fill="white"/>
<path fill-rule="evenodd" clip-rule="evenodd" d="M82.7202 203.895C82.77 203.808 82.9369 203.839 82.9234 203.95C82.1973 208.773 80.436 213.446 79.364 218.207L79.3965 218.298C79.9436 219.864 81.2011 225.512 78.1257 223.942L77.8799 225.229C73.8795 246.266 70.6506 267.526 71.1009 289.002C71.167 290.711 70.2727 295.774 67.8566 293.294C66.082 290.316 66.8635 286.664 66.7236 283.358C67.0287 265.207 68.8766 246.916 73.6219 229.357L73.8181 228.75C76.9571 219.096 76.9453 222.188 75.4703 211.408C75.4346 210.413 74.7159 208.252 75.6621 207.654C76.5147 208.193 76.7974 209.773 77.1064 210.71L77.1275 210.773C77.5864 212.112 77.9956 213.463 78.401 214.819C79.7485 211.178 80.8314 207.299 82.7202 203.895ZM132.874 287.126C134.617 286.611 136.186 288.595 135.577 290.219C135.183 291.914 131.892 292.965 131.766 290.603C130.866 289.64 131.158 287.869 132.388 287.334C132.375 287.332 132.761 287.177 132.874 287.126ZM175.091 191.042C175.156 190.818 175.342 191.023 175.292 191.165C175.68 193.135 175.364 195.303 175.453 197.35C175.702 196.763 176.025 196.203 176.444 195.678C176.807 195.223 177.466 195.873 177.088 196.322C176.15 197.439 175.74 198.785 175.561 200.184C176.937 229.395 180.99 258.554 187.943 286.964C189.45 290.882 183.372 292.469 184.039 288.203C179.439 268.277 175.772 247.93 174.952 227.447C173.845 218.458 174.281 209.093 174.433 199.988C174.439 197.021 174.726 193.981 175.091 191.042ZM113.198 131.46C114.906 131.595 115.896 134.432 116.236 135.988C117.485 142.086 114.128 148.434 109.71 152.433C116.233 158.313 123.317 163.552 130.962 167.891C132.002 166.713 133.839 166.882 135.119 167.593C139.258 163.675 143.452 159.842 147.481 155.815C141.216 151.851 140.693 143.688 141.947 137.047L141.986 136.846C142.081 136.276 142.875 136.483 142.92 136.973L142.948 137.288C143.324 141.607 143.357 146.27 145.758 150.044C148.49 145.728 155.037 150.145 155.997 153.941C183.452 163.504 183.709 157.868 189.143 189.451C194.636 221.739 196.19 254.582 202.625 286.723C202.705 287.634 201.877 288.38 201.054 288.503C197.906 288.922 197.808 280.414 197.083 278.038C195.534 269.167 194.364 260.234 193.356 251.286C190.261 224.783 189.202 197.878 183.208 171.808C182.606 169.614 181.747 167.444 180.23 165.714C173.906 158.83 162.938 160.335 156.084 154.2C156.747 156.245 156.801 158.505 156.67 160.64C155.92 172.022 155.468 183.426 154.662 194.803C154.569 196.081 153.023 196.501 152.299 195.444C146.563 187.069 140.677 178.821 135.086 170.346C134.185 170.773 133.224 170.968 132.193 170.763C130.557 172.829 131.263 178.234 130.729 181.068L130.531 183.236C127.477 216.843 125.235 250.535 125.401 284.298L125.407 285.388C125.406 286.423 125.485 287.498 125.408 288.53C124.71 291.886 121.407 290.685 121.592 287.692C121.445 249.862 123.008 211.786 129.248 174.428C123.615 181.531 117.988 188.639 112.353 195.74C111.931 196.276 111.13 196.04 110.795 195.544L110.774 195.512L110.912 195.884C110.574 195.775 110.278 195.569 109.97 195.391C107.137 188.431 105.304 181.131 103.078 173.97C101.22 166.949 98.4344 160.062 97.4081 152.867L97.3616 152.847V152.847C94.5737 154.249 91.485 155.149 88.3635 155.203C84.8334 156.112 81.1206 156.542 77.5992 157.004C52.0005 158.1 46.9396 183.526 47.1737 204.602L47.1292 205.608C46.8617 211.876 46.7355 218.253 45.1823 224.35C44.6089 225.5 42.7947 232.899 40.97 230.27C39.4316 232.328 39.9133 233.525 41.9636 234.796C45.5448 237.872 49.0392 242.769 49.7283 247.815C49.8566 248.746 48.5201 249.565 48.0449 248.525L47.8078 248.008C46.4202 244.995 44.953 242.047 42.9714 239.429C42.8837 239.576 42.7643 239.699 42.6215 239.782C42.1453 252.269 41.1811 264.734 40.3189 277.2C39.8475 278.986 40.736 290.326 37.1228 287.525L37.0119 287.435C36.1866 285.688 36.6832 283.574 36.8519 281.708L37.3597 275.732V275.732C38.4564 263.534 39.3542 251.311 40.8694 239.155L40.7505 239.018C39.0079 236.999 37.3798 234.332 38.2379 231.637C38.6778 230.016 40.1361 229.209 41.1228 227.971C46.4756 199.726 37.2278 155.993 78.3878 154.62L80.1109 154.5C85.6593 154.106 91.3734 153.546 96.3965 151.045C96.4909 149.281 98.5045 147.787 99.6042 146.602C102.992 141.894 107.539 141.658 109.183 147.817C113.556 143.113 115.322 137.652 113.198 131.46ZM131.626 268.306C133.757 266.251 136.613 269.995 132.748 272.64C132.047 273.925 130.13 273.019 130.456 271.673L130.452 271.446C130.424 270.275 130.308 268.829 131.626 268.306ZM131.853 240.876C135.744 239.622 134.774 246.712 132.207 247.679C130.656 248.45 130.124 246.521 130.407 245.344C129.4 243.812 130.323 241.797 131.853 240.876ZM131.79 220.502C131.072 217.464 135.43 216.958 135.455 220.131C135.596 221.465 134.38 222.334 134.072 223.494C134.007 224.249 133.081 224.78 132.489 224.15C131.5 223.097 131.288 221.669 131.79 220.502ZM131.243 193.508C131.687 189.951 135.71 191.451 134.289 192.043C134.261 192.074 134.231 192.104 134.199 192.135C135.824 192.293 135.71 194.201 135.53 195.423C134.892 198.156 130.761 195.669 131.243 193.508ZM106.5 182.196C106.83 183.392 107.163 184.588 107.504 185.781C108.382 188.856 109.425 191.848 110.525 194.836C109.179 190.624 107.838 186.41 106.5 182.196ZM108.724 148.334C104.872 141.864 102.793 149.159 99.9993 152.026C101.973 166.142 107.946 179.328 112.011 192.935C117.675 185.693 123.345 178.455 129.01 171.214C129.349 170.78 129.675 170.325 130.014 169.88C122.902 165.768 116.196 160.907 110.551 154.877C109.466 155.109 108.633 153.657 107.854 153.053L107.772 152.986C107.051 152.378 106.383 151.419 106.837 150.474C106.777 150.346 106.868 150.228 106.992 150.189C107.556 149.57 108.154 148.973 108.724 148.334ZM153.651 161.894C154.027 157.275 153.265 150.654 147.057 151.708C148.163 153.223 150.241 153.467 151.336 154.922C151.737 155.588 151.245 156.413 150.517 156.539C145.698 160.905 141.143 165.377 136.223 169.675C141.69 176.756 146.938 183.971 152.255 191.16C152.622 181.401 153.268 171.651 153.651 161.894Z" fill="black"/>
<path fill-rule="evenodd" clip-rule="evenodd" d="M169.33 68.4448C169.259 65.9175 165.592 64.8681 164.533 67.3711C164.467 67.4381 164.396 67.5026 164.329 67.5603C164.66 67.2752 163.967 67.7469 163.854 67.8053C163.758 67.8551 163.659 67.9001 163.56 67.9466C162.879 61.544 160.566 54.6417 154.589 51.4279C146.252 47.3751 136.619 46.584 127.473 46.9866C122.84 47.2622 117.489 48.0049 113.373 45.6551C112.09 44.923 111.062 43.7705 109.613 43.318C105.037 42.0772 102.962 46.7873 103.585 50.6607C101.634 50.6762 99.6977 51.7593 98.8554 53.5427C98.3609 54.5982 98.3695 55.7371 97.943 56.7964C96.6344 59.4827 94.7621 61.4136 95.8207 64.6705C93.9589 66.7944 95.0204 70.0096 96.5227 72.043C97.2646 73.1006 98.1481 74.116 98.6916 75.2997C99.2191 76.4332 98.4228 77.7774 97.9797 78.8519C94.7035 86.6399 94.8907 95.2167 96.6536 103.34C93.116 104.879 92.0543 109.689 94.3611 112.718C95.1549 113.789 96.1232 114.186 97.2214 114.845C98.6111 115.612 97.476 118.683 97.9211 120.166C98.5257 123.788 101.815 126.017 105.066 123.666C107.13 123.353 108.794 129.372 110.293 130.883C111.216 132.1 112.241 133.193 113.356 134.202C116.676 142.767 133.691 147.11 142.103 146.614C150.912 145.69 156.855 138.19 161.803 131.533C164.344 127.987 165.997 124.017 166.598 119.688C167.202 115.336 166.938 110.977 166.529 106.621C165.672 97.3645 164.319 84.0291 163.446 74.6729C166.602 74.4123 169.426 71.7182 169.33 68.4448V68.4448Z" fill="#FFDBB4"/>
<path fill-rule="evenodd" clip-rule="evenodd" d="M106.401 44.5497C107.014 43.9434 108.018 44.5655 108.683 45.0527L108.83 45.1621L109.251 45.483C110.205 46.2209 111.099 47.0228 112.13 47.661C113.256 48.358 114.478 48.9122 115.72 49.3666C118.127 50.2477 120.717 50.6432 123.27 50.7681C133.713 51.2791 145.868 45.7783 155.346 52.3471C157.593 53.9041 159.143 56.1807 159.944 58.7846C160.846 61.7209 160.537 64.7618 161.275 67.7082C161.595 68.9871 163.803 69.1646 164.05 67.7591L164.066 67.6502L164.259 67.5288L164.335 67.4832C164.414 67.4379 164.449 67.425 164.382 67.4886L164.367 67.5021L164.397 67.4761C164.42 67.4555 164.443 67.4343 164.465 67.4127L164.533 67.3467C165.003 66.2349 165.988 65.824 166.944 65.9321L166.917 65.9982L166.632 66.7334L166.542 66.9641C166.207 67.8061 165.839 68.6033 165.202 69.3249C164.301 70.3459 163.181 71.178 161.919 71.6903C161.659 71.7956 161.698 72.1483 161.985 72.1769C164.804 72.4582 167.98 70.741 169.306 68.1383C169.319 68.23 169.327 68.3241 169.33 68.4204C169.339 68.7374 169.321 69.0491 169.278 69.3536C169.121 69.4121 168.969 69.4989 168.828 69.6164C167.912 70.3792 167.462 71.6259 166.601 72.477C165.699 73.3689 164.592 74.1959 163.389 74.6102C163.37 74.6167 163.355 74.6262 163.341 74.6368C163.25 74.2919 163.154 73.9489 163.044 73.6111C163.001 73.4784 162.825 73.5116 162.812 73.6428C162.788 73.8771 159.48 71.5182 156.932 71.8993C152.143 72.6158 151.037 75.4188 144.157 75.0049C140.798 74.8029 133.706 71.6491 127.502 71.412C121.873 71.1969 111.814 74.4173 109.16 76.273C107.78 77.2378 111.676 80.4234 110.971 81.8717C108.969 85.98 109.78 91.4148 107.687 94.6634L107.606 94.7858C106.266 96.7602 107.102 102.014 106.58 103.634C105.638 106.558 104.077 105.277 104.313 105.669C104.387 105.793 104.587 105.713 104.548 105.57C103.904 103.224 102.143 101.453 99.9042 100.807C100.001 100.251 99.8249 99.5526 99.48 99.0965L99.3387 98.4365L99.2085 97.8186C98.9087 96.3774 98.6402 94.9375 98.4957 93.4568C98.2792 91.2364 98.2716 88.9994 98.4139 86.7735C98.6005 83.8487 99.2014 81.0309 99.8622 78.2149L99.9332 77.9132L100.453 75.7237C101.751 76.094 103.084 76.3279 104.379 76.444C105.887 76.5788 107.38 76.5663 108.861 76.4469C110.174 80.0219 110.124 84.0927 108.501 87.5842C106.603 91.6686 101.951 95.5699 103.228 100.523C103.785 102.682 107.043 102.241 107.12 100.061L107.121 99.9945C107.133 97.8403 107.864 96.0664 108.829 94.2149L108.962 93.9619L109.182 93.5492C110.338 91.3834 111.316 89.2462 111.641 86.7824C112.113 83.2032 111.373 79.5073 109.605 76.378C115.903 75.7194 121.999 73.2198 128.149 71.8769L128.431 71.8164L128.714 71.758C133.257 70.8395 138.265 70.7311 142.383 73.1289C142.462 73.1746 142.524 73.0602 142.453 73.0091C136.475 68.6868 128.733 69.3003 121.878 70.8235L121.483 70.9123L121.095 71.0013C114.755 72.4693 108.112 74.6256 101.631 72.7261C99.9463 72.2324 98.3114 71.4214 96.9925 70.247L96.8822 70.148C96.3247 69.6434 95.688 68.9903 95.5806 68.2243C95.5429 67.9546 95.5547 67.7699 95.7135 67.5565C95.8787 67.3341 96.1676 67.3352 96.0014 67.2549C97.9427 68.1929 99.6069 65.4976 97.7836 64.3298L97.6547 64.2501C95.3218 62.7685 96.4873 59.3965 99.1636 59.4122L99.3004 59.4147C100.816 59.4193 101.281 57.6245 100.465 56.574L100.387 56.4759C98.8786 54.5282 101.418 52.1789 103.393 53.28L103.502 53.3423C104.439 53.8622 105.425 53.2834 105.78 52.3652C106.541 50.3952 106.152 48.3611 106.107 46.3221L106.104 46.1892L106.101 45.9674L106.101 45.7922L106.102 45.6761C106.112 45.2464 106.168 44.7802 106.401 44.5497ZM163.412 74.9173L163.431 74.9215L163.471 74.9233L163.508 75.3201L163.461 75.1185L163.412 74.9173ZM98.6475 75.1809L98.602 75.0877L98.7495 75.1473L98.6784 75.2471L98.6475 75.1809ZM140.002 63.844C139.845 63.7992 139.731 64.0441 139.887 64.1156C143.765 65.8939 146.707 68.7319 149.003 72.2881C149.22 72.6247 149.549 72.7234 149.926 72.6647C150.112 72.6358 150.216 72.5456 150.315 72.4219L150.34 72.3903L150.415 72.2881C150.579 72.0628 150.557 71.688 150.415 71.4604C148.085 67.7294 144.185 65.0415 140.002 63.844ZM149.233 62.6792C149.062 62.6798 148.971 62.9414 149.102 63.0526C150.215 64.0029 151.303 65.056 152.093 66.2992C152.477 66.9026 152.798 67.5459 153.031 68.2235C153.284 68.9628 153.366 69.7292 153.727 70.4283C154.333 71.6001 155.957 70.9455 156.039 69.8006C156.162 68.0737 154.723 66.1318 153.583 64.955C152.426 63.7607 151.007 62.9371 149.37 62.6965L149.255 62.6806L149.233 62.6792ZM106.486 61.3273C106.011 61.2068 105.622 61.8151 105.996 62.1719C108.049 64.1325 110.824 65.0419 113.586 65.439L113.727 65.4588C116.313 65.8143 120.075 66.0159 122.025 63.9068C122.438 63.4603 122.309 62.6043 121.646 62.4663C120.738 62.2772 119.807 62.3469 118.886 62.4606L118.623 62.4941L117.97 62.581C116.68 62.7499 115.386 62.8528 114.084 62.8146C111.477 62.7376 108.994 61.9637 106.486 61.3273ZM151.663 55.0886C151.389 54.9827 151.101 55.3594 151.272 55.598C152.059 56.6915 153.001 57.6478 153.807 58.7247C154.615 59.8049 155.29 60.9401 156.247 61.9011C156.76 62.4168 157.634 61.8922 157.452 61.1975C156.766 58.5676 154.154 56.0541 151.663 55.0886ZM110.735 56.2755C110.448 56.1737 110.247 56.5723 110.447 56.7724C113.094 59.4219 117.856 60.8096 121.363 59.2793C122.152 58.9348 121.669 57.8277 120.959 57.784C119.204 57.6755 117.442 57.8789 115.696 57.6113C113.992 57.3498 112.358 56.8515 110.735 56.2755ZM115.185 52.7241C114.806 52.5658 114.647 53.1331 114.926 53.3398C116.424 54.4498 118.262 54.931 120.095 54.5314C120.691 54.4012 120.563 53.4364 119.95 53.4611C118.292 53.5274 116.73 53.3689 115.185 52.7241ZM127.473 46.9622C129.742 46.8623 132.041 46.8359 134.343 46.9145L133.322 47.0505L132.641 47.1396C130.029 47.4772 127.414 47.7628 124.778 47.7512C122.996 47.7434 121.217 47.5995 119.477 47.2474C122.142 47.4085 124.916 47.1142 127.473 46.9622Z" fill="#724133"/>
<path fill-rule="evenodd" clip-rule="evenodd" d="M100.521 62.8797C100.518 62.8928 100.522 62.9027 100.525 62.9166C100.526 62.9126 100.526 62.9105 100.527 62.9057C100.525 62.8951 100.523 62.8881 100.521 62.8797" fill="#4F66AF"/>
<path fill-rule="evenodd" clip-rule="evenodd" d="M100.52 63.0141C100.508 63.0018 100.492 62.9927 100.475 62.9805C100.475 62.9809 100.475 62.9813 100.474 62.9817C100.49 62.9919 100.505 63.0035 100.52 63.0141" fill="#4F66AF"/>
<path fill-rule="evenodd" clip-rule="evenodd" d="M168.828 69.6408C169.864 68.7772 171.498 69.5723 171.146 70.994C170.764 72.5424 169.109 73.6004 167.742 74.2366C166.336 74.8911 164.966 75.0173 163.431 74.9459L163.412 74.9416V74.9416C163.838 76.6542 164.08 78.4344 164.406 80.1573C164.819 82.3431 165.226 84.53 165.627 86.7179C166.015 88.8326 166.505 90.9501 166.803 93.0755C167.103 95.2209 167.391 97.3678 167.687 99.5139C168.179 103.098 168.577 106.699 168.996 110.293L169.196 111.995C169.616 115.596 169.954 119.202 169.158 122.786C168.412 126.145 166.732 129.278 164.784 132.081C162.876 134.827 160.744 137.467 158.404 139.855C153.891 144.46 148.325 148.149 141.799 148.833C138.989 149.128 135.988 148.8 133.346 147.776L133.17 147.707C130.496 146.649 127.221 144.836 126.525 141.862C126.098 140.038 127.973 138.614 129.617 139.479C130.379 139.881 130.952 140.339 131.577 140.914L131.688 141.016C132.199 141.492 132.396 141.638 132.986 142.01C134.195 142.773 135.102 143.134 136.476 143.481C139.008 144.12 141.742 144.019 144.313 143.263C149.772 141.659 154.007 137.475 157.635 133.279C159.605 131 161.475 128.61 162.917 125.954C164.43 123.168 165.128 120.243 165.086 117.073C165.039 113.496 164.546 109.904 164.222 106.344C163.892 102.715 163.588 99.0865 163.319 95.4519C163.067 92.0435 163.043 88.6196 162.955 85.2006L162.938 84.5596C162.886 82.7445 162.85 80.9288 162.809 79.1133C162.769 77.303 162.626 75.4698 162.812 73.6672C162.825 73.5359 163.001 73.5028 163.044 73.6355C163.154 73.9732 163.25 74.3162 163.341 74.6612C163.354 74.6506 163.37 74.6411 163.389 74.6345C164.592 74.2203 165.699 73.3933 166.601 72.5014C167.462 71.6503 167.912 70.4035 168.828 69.6408ZM103.036 44.2793C103.791 41.169 107.19 40.4743 109.704 41.9722C110.913 42.6924 111.881 43.7312 113.011 44.5568C114.133 45.3776 115.374 46.0368 116.684 46.5024C119.285 47.4273 122.029 47.7636 124.778 47.7756C131.47 47.805 138.025 45.9198 144.726 46.13C149.911 46.2928 155.415 47.8291 159.176 51.5869C161.203 53.6112 162.508 56.2138 163.208 58.9768C163.536 60.2681 163.78 61.5907 163.972 62.9103L164.019 63.2401C164.127 64.0113 164.3 64.8278 164.316 65.6072C164.33 66.3072 164.154 67.0398 164.058 67.7326C163.856 69.193 161.6 69.0267 161.276 67.7326C160.537 64.7861 160.846 61.7452 159.944 58.809C159.144 56.2051 157.593 53.9285 155.347 52.3714C145.868 45.8027 133.713 51.3035 123.27 50.7924C120.718 50.6675 118.128 50.2721 115.72 49.391C114.479 48.9366 113.256 48.3824 112.131 47.6854C111.099 47.0472 110.206 46.2453 109.251 45.5074L108.83 45.1865C108.176 44.6929 107.062 43.9211 106.401 44.5741C106.114 44.8583 106.097 45.501 106.102 45.9917L106.105 46.2135C106.135 48.297 106.559 50.3767 105.781 52.3896C105.426 53.3077 104.44 53.8866 103.502 53.3667L103.454 53.3388C101.47 52.1558 98.864 54.5329 100.388 56.5003L100.435 56.5598C101.293 57.6043 100.835 59.4437 99.301 59.4391L99.2458 59.4381C96.5118 59.3526 95.2989 62.7779 97.6554 64.2745L97.7279 64.3193C99.6411 65.4671 97.9629 68.2267 96.0021 67.2792C96.1682 67.3595 95.8794 67.3585 95.7141 67.5808C95.5553 67.7943 95.5435 67.979 95.5813 68.2487C95.6957 69.0658 96.4125 69.7544 96.9931 70.2713C98.312 71.4458 99.947 72.2567 101.632 72.7505C108.38 74.7283 115.303 72.309 121.879 70.8479C128.733 69.3247 136.476 68.7111 142.454 73.0335C142.525 73.0846 142.463 73.1989 142.384 73.1533C138.094 70.6556 132.839 70.8773 128.149 71.9013C122 73.2442 115.904 75.7438 109.606 76.4024C111.374 79.5316 112.114 83.2275 111.641 86.8067C111.316 89.2706 110.338 91.4078 109.183 93.5735L108.962 93.9863C107.932 95.9303 107.135 97.7668 107.122 100.019C107.109 102.256 103.791 102.728 103.229 100.547C101.952 95.5943 106.604 91.6929 108.502 87.6086C110.124 84.1171 110.174 80.0463 108.861 76.4713C107.38 76.5907 105.887 76.6032 104.379 76.4683C103.084 76.3523 101.752 76.1183 100.453 75.748L99.9338 77.9376C99.2455 80.8541 98.6078 83.7686 98.4145 86.7979C98.2722 89.0238 98.2798 91.2607 98.4963 93.4812C98.6835 95.399 99.0786 97.2485 99.4806 99.1208C99.8255 99.5769 100.002 100.275 99.9048 100.831C102.144 101.477 103.905 103.249 104.548 105.594C104.587 105.737 104.388 105.817 104.313 105.694C102.787 103.154 98.8558 102.22 96.3691 103.898C93.9944 105.499 93.0577 108.733 94.4019 111.293C95.109 112.639 96.1573 113.585 97.509 114.236L97.7808 114.364C98.4891 114.7 99.1394 115.066 99.5949 115.741C100.186 116.616 100.206 117.542 100.15 118.542L100.126 118.948C100.088 119.618 100.08 120.308 100.279 120.953L100.324 121.097C100.377 121.258 100.432 121.399 100.528 121.553C100.557 121.599 100.826 121.863 100.914 121.959L101.024 121.993V121.993L101.148 121.998V121.998C101.285 122 101.465 121.94 101.406 121.981L101.422 121.972C101.474 121.94 101.522 121.905 101.562 121.875L101.638 121.815C101.817 121.556 102.042 121.341 102.317 121.178L102.58 121.061V121.061C103.263 120.338 104.433 120.718 104.922 121.438C105.274 121.956 105.464 122.482 105.48 123.001C105.535 122.913 105.657 122.864 105.735 122.963L106.199 123.556C107.975 125.831 109.72 128.12 111.738 130.194C112.849 131.336 114.045 132.41 115.295 133.399C116.362 134.243 118.387 135.055 118.418 136.593C118.427 137.093 118.074 137.446 117.641 137.616C116.233 138.167 114.493 136.292 113.476 135.379L113.393 135.305C112.149 134.212 111.013 133.013 109.965 131.73C107.929 129.238 106.226 126.37 105.476 123.214C105.441 123.765 105.205 124.304 104.746 124.814C104.136 125.491 103.3 125.966 102.407 126.162C100.384 126.605 98.409 125.875 97.2054 124.186C96.1882 122.757 95.8886 120.871 96.0199 119.145L96.0361 118.938C96.0545 118.661 96.078 118.153 96.1494 117.937L95.5125 117.587V117.587C94.7317 117.17 94.0079 116.624 93.3584 116.024C90.7478 113.611 89.4379 109.69 90.6314 106.258C91.3779 104.112 92.9466 102.244 94.9553 101.273C94.6196 100.496 94.5073 99.5718 94.3806 98.7545L94.3593 98.6193C94.1445 97.2785 93.9647 95.9208 93.8962 94.5639C93.768 92.0298 93.9238 89.4721 94.321 86.9674C94.9661 82.8991 96.3016 78.5846 98.7497 75.1717C96.882 74.4282 95.163 73.3518 93.8361 71.8571C92.4495 70.2952 91.5655 68.0591 92.6378 66.0756C92.911 65.57 93.2671 65.145 93.6763 64.8075C92.9667 63.4642 92.7371 61.8765 93.1749 60.359C93.6982 58.5448 95.1189 57.1298 96.8352 56.4691C96.4184 54.7502 96.7591 52.9013 98.0327 51.4688C99.296 50.0476 101.258 49.53 103.073 49.8549C103.172 48.0267 102.598 46.0823 103.036 44.2793ZM97.9439 108.466C99.6085 107.65 101.581 107.779 103.244 108.553L103.357 108.607C105.172 109.489 107.577 111.551 107 113.744C106.662 115.027 105.24 115.465 104.138 114.911C103.218 114.449 103.008 113.622 102.546 112.791C102.219 112.203 101.815 111.744 101.341 111.272C100.342 110.276 99.2192 109.537 97.9439 108.945C97.7601 108.86 97.7664 108.554 97.9439 108.466ZM139.887 64.1399C139.731 64.0685 139.844 63.8236 140.001 63.8684C144.184 65.0659 148.084 67.7538 150.415 71.4848C150.557 71.7124 150.579 72.0871 150.415 72.3124L150.339 72.4147C150.232 72.5546 150.127 72.6578 149.926 72.6891C149.548 72.7478 149.22 72.6491 149.002 72.3124C146.707 68.7563 143.765 65.9182 139.887 64.1399ZM167.889 64.8441C168.244 64.2424 169.183 64.3635 169.37 65.0381L169.397 65.0969C169.498 65.3268 169.452 65.3739 169.264 65.2438C169.73 65.6289 169.941 66.2025 169.799 66.8192C169.029 70.1501 165.266 72.5286 161.985 72.2012C161.698 72.1727 161.659 71.8199 161.919 71.7147C163.181 71.2024 164.301 70.3703 165.202 69.3493C166.078 68.3568 166.446 67.2212 166.917 66.0226C167.094 65.5726 167.369 65.2486 167.756 65.0717C167.807 65.0007 167.852 64.9251 167.889 64.8441ZM149.232 62.7036L149.255 62.705C150.941 62.9233 152.399 63.7573 153.583 64.9794C154.723 66.1562 156.162 68.098 156.038 69.825C155.957 70.9699 154.333 71.6244 153.727 70.4527C153.366 69.7535 153.284 68.9872 153.03 68.2479C152.798 67.5703 152.477 66.927 152.093 66.3235C151.302 65.0804 150.215 64.0272 149.101 63.077C148.971 62.9658 149.062 62.7042 149.232 62.7036V62.7036ZM105.996 62.1962C105.622 61.8395 106.011 61.2312 106.486 61.3517C108.993 61.9881 111.476 62.762 114.083 62.839C115.385 62.8772 116.68 62.7743 117.97 62.6054L118.623 62.5185C119.629 62.3869 120.652 62.2835 121.646 62.4906C122.309 62.6287 122.438 63.4846 122.025 63.9312C120.075 66.0403 116.313 65.8386 113.726 65.4832C110.918 65.0968 108.083 64.1901 105.996 62.1962ZM151.273 55.6223C151.102 55.3837 151.391 55.0071 151.664 55.113C154.156 56.0784 156.767 58.592 157.453 61.2219C157.635 61.9166 156.761 62.4411 156.248 61.9254C155.292 60.9644 154.616 59.8293 153.808 58.7491C153.003 57.6722 152.06 56.7159 151.273 55.6223ZM110.447 56.7968C110.247 56.5967 110.448 56.1981 110.735 56.2999C112.357 56.8759 113.992 57.3742 115.696 57.6357C117.442 57.9032 119.204 57.6999 120.958 57.8083C121.668 57.8521 122.152 58.9591 121.363 59.3036C117.856 60.834 113.094 59.4463 110.447 56.7968ZM114.927 53.3641C114.648 53.1574 114.807 52.5902 115.186 52.7485C116.731 53.3933 118.294 53.5518 119.951 53.4855C120.564 53.4607 120.693 54.4255 120.096 54.5557C118.263 54.9554 116.425 54.4742 114.927 53.3641Z" fill="black"/>
<path fill-rule="evenodd" clip-rule="evenodd" d="M145.116 130.389C146.713 130.166 148.43 129.261 149.956 129.997C150.669 130.34 151.007 131.516 150.525 132.169C149.789 133.167 149.029 133.332 147.833 133.428C146.937 133.5 146.037 133.505 145.143 133.402L144.916 133.374C143.321 133.168 141.664 132.723 140.428 131.651C140.176 131.431 140.305 130.957 140.629 130.889C142.096 130.58 143.631 130.596 145.116 130.389ZM143.237 126.71C143.236 126.697 143.256 126.697 143.256 126.71C143.295 127.623 143.551 128.469 144.026 129.251C144.032 129.262 144.015 129.272 144.008 129.261C143.534 128.479 143.275 127.624 143.237 126.71ZM148.271 107.866C149.866 108.836 152.297 111.098 150.581 113.503C148.561 115.624 145.652 113.193 144.219 112.093C142.89 111.241 141.396 113.433 142.63 114.428C152.987 122.099 157.19 108.12 149.078 106.726C148.185 106.572 147.853 107.566 148.271 107.866ZM156.436 97.0097C156.811 97.0097 157.169 97.1369 157.495 97.3723C157.817 97.604 158.107 97.9421 158.349 98.3638C158.808 99.1618 159.094 100.264 159.094 101.482C159.094 102.7 158.808 103.802 158.349 104.6C158.107 105.022 157.817 105.36 157.495 105.591C157.169 105.827 156.811 105.954 156.436 105.954C156.062 105.954 155.703 105.827 155.377 105.591C155.056 105.36 154.765 105.022 154.523 104.6C154.065 103.802 153.778 102.7 153.778 101.482C153.778 100.264 154.065 99.1618 154.523 98.3638C154.765 97.9421 155.056 97.604 155.377 97.3723C155.703 97.1369 156.062 97.0097 156.436 97.0097ZM139.087 98.2524L139.228 98.2257C140.051 98.0759 140.467 98.1263 141.184 98.6874C141.722 99.109 141.568 99.9394 141.184 100.383C140.514 101.156 139.86 101.019 138.943 101.048L138.879 101.05C138.115 101.082 137.35 101.103 136.585 101.115C136.376 101.118 136.167 101.117 135.957 101.119C135.98 103.055 134.864 104.529 133.394 105.65C132.444 106.375 131.243 105.539 130.904 104.636C130.624 103.89 130.563 102.972 130.709 102.155C130.762 101.854 130.875 101.527 131.046 101.248L131.095 101.173L131.087 101.066C131.085 101.039 131.087 101.014 131.086 100.988C129.722 100.905 128.365 100.768 127.009 100.596L126.557 100.537C125.4 100.384 123.7 100.335 122.764 99.5816C122.734 99.5575 122.745 99.5049 122.776 99.4882C123.291 99.2108 123.813 99.2265 124.389 99.2009L124.472 99.1969C125.098 99.1646 125.723 99.1376 126.349 99.1162L126.975 99.0966C128.577 99.0507 130.18 98.9729 131.78 98.8877C132.059 98.8729 132.337 98.8554 132.616 98.8383C132.907 98.7161 133.217 98.643 133.523 98.6295C133.776 98.6181 134.02 98.6531 134.249 98.7261C134.834 98.6809 135.418 98.6317 136.001 98.5788L136.585 98.5246C137.409 98.4462 138.274 98.412 139.087 98.2524ZM149.2 83.7411C150.961 82.8756 153.101 82.8544 154.914 83.5707L155.034 83.6194C156.866 84.3796 159.072 86.1355 158.594 88.3227C158.157 90.3246 155.018 89.9854 154.859 88.0932C153.846 86.6885 151.573 86.3804 150.145 87.2736C149.278 87.8155 148.684 88.7279 148.277 89.6481C147.931 90.4318 147.865 91.3995 147.333 92.0822C147.316 92.1044 147.281 92.1084 147.256 92.1025C145.669 91.7352 145.632 89.2123 145.903 87.9886C146.296 86.2094 147.558 84.5488 149.2 83.7411Z" fill="black"/>
</svg>
