<svg width="240" height="324" viewBox="0 0 240 324" fill="none" xmlns="http://www.w3.org/2000/svg">
<path fill-rule="evenodd" clip-rule="evenodd" d="M87.4254 153.378C97.9434 151.06 104.182 151.06 107.712 147.47C111.241 143.88 111.882 137.717 113.346 132.959C114.153 130.337 122.058 127.955 129.726 128.328C135.975 128.632 142.272 131.272 142.759 132.959C143.842 136.716 145.584 152.799 151.313 155.27C157.042 157.741 169.273 155.488 172.77 161.389C176.267 167.29 187.751 191.344 187.751 196.949C187.751 202.554 75.4741 200.84 75.4741 200.84C75.4741 200.84 76.9074 155.695 87.4254 153.378Z" fill="#FFDBB4"/>
<path fill-rule="evenodd" clip-rule="evenodd" d="M39.0391 283.937C39.1997 284.051 39.0729 284.053 39.0391 283.937ZM38.4157 283.471C38.4262 283.48 38.4389 283.488 38.4516 283.497C38.3248 283.486 38.2466 283.357 38.4157 283.471M204.578 268.611C203.872 265.595 203.169 262.577 202.463 259.561C200.991 253.255 199.516 246.946 198.043 240.637C195.16 228.298 192.278 215.96 189.394 203.621C187.93 197.35 186.257 191.128 184.746 184.868C183.424 179.381 182.331 173.764 180.06 168.571C177.743 163.27 173.672 158.84 168.28 156.594C163.74 154.704 158.634 153.658 153.69 153.419C154.311 152.658 154.457 151.532 153.55 150.612C152.426 149.473 152.198 147.78 151.898 146.273C151.524 144.39 150.943 142.372 149.824 140.787C149.35 140.117 148.662 139.804 147.85 139.984C147.352 140.094 146.861 140.222 146.378 140.368C146.222 140.212 146.067 140.045 145.932 139.842C145.626 139.373 145.427 138.686 144.988 138.327C144.69 138.081 144.352 138.022 144.003 138.2C143.067 138.675 142.989 140.115 143.19 140.998C143.23 141.169 143.278 141.34 143.338 141.507C143.274 141.537 143.209 141.567 143.143 141.596H143.141C141.92 141.364 140.361 141.854 139.169 141.972C137.785 142.11 136.395 142.201 135.005 142.245C132.16 142.336 129.31 142.251 126.476 141.966C123.715 141.691 120.973 141.25 118.246 140.751C116.547 140.44 114.476 140.182 112.985 139.161C112.961 138.652 112.949 138.141 112.938 137.631C112.917 136.746 112.964 136.05 112.493 135.273C112.486 135.264 112.476 135.262 112.465 135.266C111.882 135.571 111.464 136.091 111.157 136.708C110.598 136.558 109.995 136.579 109.474 136.796C108.736 137.103 108.187 137.456 107.615 138.022C106.763 138.861 106.514 139.842 106.265 140.969C106.085 141.776 105.973 142.353 105.652 142.894C105.582 143.01 105.508 143.133 105.428 143.245C105.398 143.274 105.343 143.331 105.25 143.429C105.157 143.522 105.065 143.612 104.969 143.703C104.915 143.758 104.644 143.978 104.686 143.949C103.516 144.819 102.457 145.147 101.012 145.563C97.9026 146.459 94.7166 147.045 91.6173 147.996C88.2307 149.036 84.918 150.3 81.6793 151.735C69.0814 157.316 57.8061 166.153 50.1181 177.661C41.1645 191.065 37.8688 207.345 36.2357 223.129C34.4483 240.428 34.573 257.923 34.1821 275.294C34.1336 277.467 34.085 279.64 34.0364 281.812C33.9878 283.936 33.8568 286.223 35.7413 287.654C37.4209 288.926 39.4659 288.527 41.3251 287.954C43.3152 287.343 45.3413 286.857 47.3927 286.509C51.2631 285.855 55.2561 285.777 59.1603 286.158C61.2582 286.363 63.8251 287.14 65.549 285.496C66.1681 284.904 66.5251 284.154 66.8166 283.366C67.18 282.394 67.6047 281.44 68.0272 280.485C68.3758 279.699 68.7223 278.908 69.0688 278.12C69.6307 280.582 70.1927 283.044 70.7547 285.509C70.9765 286.479 71.9885 286.553 72.599 286.082C73.5962 286.616 74.9061 286.606 76.0385 286.737C77.8596 286.946 79.6953 287.018 81.5251 287.081C85.1103 287.204 88.6955 287.271 92.2828 287.318C99.5969 287.411 106.911 287.377 114.223 287.345C128.709 287.282 143.194 286.986 157.674 286.61C161.752 286.504 165.829 286.409 169.907 286.31C171.943 286.261 173.982 286.213 176.021 286.156C176.631 286.139 177.248 286.082 177.827 285.946H177.829C178.087 286.172 178.404 286.346 178.782 286.449C180.136 286.821 181.482 285.993 181.888 284.685C182.076 284.084 182.207 283.535 182.16 282.952C182.23 282.512 182.3 282.072 182.369 281.633C184.63 283.064 187.343 283.452 190.019 283.275C193.047 283.074 196.074 282.52 199.079 282.108C201.899 281.721 206.471 281.846 206.606 277.949C206.655 276.522 206.052 274.922 205.731 273.549C205.347 271.902 204.962 270.258 204.578 268.611" fill="#221E1F"/>
<path fill-rule="evenodd" clip-rule="evenodd" d="M139.183 145.719C134.504 145.747 130.527 144.416 127.492 142.214C123.705 140.86 119.138 138.772 116.363 136.58C115.281 136.857 113.986 135.705 113.158 135.096C108.009 131.242 103.967 125.599 102.769 119.947C100.92 122.287 98.2893 122.384 95.7689 121.221C90.4857 118.218 90.6832 111.893 92.5853 107.168C88.5866 98.1731 85.8153 74.4287 91.9193 64.8459C93.1678 63.4121 95 62.5544 96.3191 61.0841C97.493 59.7999 98.6095 58.4864 99.9752 57.4702C104.142 54.2906 111.32 52.5977 115.813 51.8016C134.573 47.7356 148.986 55.0437 165.979 61.2081C165.001 63.6598 163.648 65.8957 162.098 67.9804C166.316 69.559 164.379 73.1082 161.106 74.9074L159.157 73.9581C162.195 84.8523 169.185 111.944 166.169 120.643C163.764 134.216 153.209 145.818 139.183 145.719" fill="#FFDBB4"/>
<path fill-rule="evenodd" clip-rule="evenodd" d="M159.687 76.2293H159.118L159.04 75.5671L159.04 75.5669L159.04 75.5667L159.04 75.564L159.038 75.5512L159.031 75.4967C159.028 75.4736 159.024 75.4451 159.02 75.4115C159.015 75.3742 159.009 75.3307 159.001 75.2814C158.974 75.0941 158.932 74.8242 158.872 74.4987C158.752 73.8455 158.563 72.9791 158.291 72.1105C158.016 71.2336 157.668 70.3975 157.244 69.7784C156.814 69.1486 156.391 68.8634 155.993 68.8237C155.484 68.773 154.704 68.9786 153.667 69.4407C152.66 69.8894 151.537 70.5193 150.382 71.1791L150.04 71.3748C149.009 71.9648 147.962 72.5642 147.007 73.0286C145.974 73.5304 144.916 73.9439 144.032 73.9439C143.585 73.9439 142.982 73.828 142.314 73.6622C141.626 73.4917 140.801 73.2506 139.88 72.9661C138.98 72.688 137.945 72.3544 136.839 71.9981C135.728 71.6399 134.546 71.2588 133.357 70.8879C128.496 69.371 123.14 67.8999 119.399 67.8999C115.733 67.8999 112.3 69.4195 109.439 71.5419C106.578 73.6649 104.344 76.3521 103.085 78.5855C101.995 80.52 102.754 82.7862 104.03 84.7687C104.65 85.7329 105.353 86.5649 105.904 87.1582C106.179 87.4538 106.413 87.6878 106.578 87.8466C106.66 87.9259 106.725 87.9864 106.768 88.0263C106.79 88.0462 106.806 88.061 106.817 88.0704L106.828 88.0804L106.83 88.0823L106.83 88.0824L106.83 88.0825L106.83 88.0826L107.357 88.5489L106.924 89.1043L106.924 89.1044L106.924 89.1048L106.922 89.107L106.915 89.1168L106.884 89.1571C106.856 89.1928 106.816 89.2462 106.764 89.3152C106.659 89.4533 106.51 89.6538 106.33 89.9016C105.97 90.3979 105.491 91.0804 105.014 91.8279C104.535 92.578 104.066 93.3798 103.72 94.1172C103.361 94.8814 103.181 95.4774 103.181 95.8489C103.181 96.8932 103.403 99.1119 103.632 101.117C103.746 102.109 103.86 103.033 103.945 103.709C103.987 104.048 104.023 104.324 104.048 104.515L104.077 104.736L104.084 104.793L104.086 104.807L104.086 104.811L104.087 104.812L104.087 104.812L103.343 104.911L104.087 104.812L104.244 105.997L103.109 105.623L103.109 105.623L103.109 105.623L103.107 105.623L103.099 105.62L103.065 105.609C103.035 105.599 102.99 105.585 102.932 105.567C102.815 105.53 102.645 105.477 102.434 105.413C102.009 105.286 101.42 105.116 100.757 104.947C99.4085 104.602 97.8383 104.279 96.7401 104.279C95.8128 104.279 94.9446 104.801 94.255 105.421C93.9199 105.722 93.6505 106.025 93.4652 106.253C93.3729 106.366 93.3027 106.46 93.2566 106.523C93.2336 106.555 93.2168 106.579 93.2063 106.594L93.1955 106.609L93.1945 106.611L93.1943 106.611L93.1941 106.611L93.1938 106.612L93.1937 106.612L92.972 106.946H92.5694H92.3778C92.1798 106.481 91.9852 105.98 91.7947 105.446H92.1899C92.2237 105.403 92.2609 105.356 92.3013 105.307C92.5225 105.034 92.8454 104.671 93.2526 104.305C94.0477 103.591 95.2649 102.779 96.7401 102.779C98.0445 102.779 99.7758 103.147 101.128 103.493C101.62 103.619 102.073 103.745 102.451 103.855C102.366 103.178 102.254 102.266 102.142 101.287C101.916 99.3091 101.681 96.9968 101.681 95.8489C101.681 95.1242 101.99 94.2715 102.362 93.4792C102.747 92.6601 103.254 91.7977 103.75 91.0206C104.248 90.2408 104.744 89.533 105.116 89.0209C105.194 88.9136 105.266 88.8148 105.332 88.7255C105.181 88.5749 105.002 88.3914 104.805 88.1791C104.215 87.5441 103.451 86.6414 102.768 85.5803C101.438 83.5122 100.247 80.5652 101.778 77.849C103.14 75.4318 105.515 72.5853 108.545 70.3373C111.576 68.0887 115.316 66.3999 119.399 66.3999C123.407 66.3999 128.98 67.9508 133.803 69.4559C135.046 69.8437 136.217 70.2212 137.31 70.5739L137.311 70.5742C138.392 70.9227 139.397 71.2469 140.323 71.5329C141.236 71.815 142.029 72.0462 142.675 72.2062C143.339 72.371 143.785 72.4439 144.032 72.4439C144.537 72.4439 145.317 72.1819 146.351 71.6795C147.258 71.2388 148.259 70.6659 149.3 70.0704L149.3 70.0703L149.638 69.8768C150.785 69.2216 151.97 68.5544 153.056 68.0706C154.112 67.6003 155.209 67.2381 156.141 67.331C157.183 67.4349 157.946 68.1467 158.483 68.9318C159.027 69.7274 159.428 70.7238 159.722 71.6615C160.019 72.6074 160.22 73.5377 160.347 74.2275C160.379 74.4045 160.407 74.5663 160.431 74.7094L159.088 74.0553C159.274 74.7219 159.475 75.4492 159.687 76.2293ZM160.471 74.7293L161.037 75.0047C161.196 74.9169 161.353 74.8249 161.506 74.7293H160.471Z" fill="#FDEA6B"/>
<path fill-rule="evenodd" clip-rule="evenodd" d="M141.894 146.888C135.818 147.513 128.6 146.073 124.55 141.125C124.429 140.977 124.376 140.81 124.372 140.648C124.369 140.468 124.429 140.294 124.533 140.158C124.643 140.016 124.799 139.917 124.977 139.885C125.128 139.858 125.299 139.875 125.476 139.975L125.849 140.182C128.615 141.714 131.488 143.02 134.623 143.579C137.851 144.155 141.137 144.091 144.336 143.36C150.164 142.029 154.88 138.633 158.351 134.156C162.225 129.16 164.551 122.818 165.144 116.475C165.862 108.789 164.196 101.149 162.471 93.7064C160.659 85.8862 158.679 78.1059 156.378 70.4159C156.309 70.1844 156.29 69.9677 156.31 69.7682C155.632 69.5017 154.909 69.5757 154.191 69.819C152.877 70.2635 151.569 71.2659 150.478 72.0934C150.083 72.3931 149.715 72.6716 149.385 72.8983C148.031 73.8265 146.552 74.4943 144.899 74.5993C143.178 74.7083 141.492 74.1724 139.93 73.5017C139.136 73.1609 138.355 72.8075 137.577 72.4554C135.363 71.4529 133.174 70.4604 130.783 69.8153C127.578 68.9507 124.269 68.5248 120.951 68.5553C115.027 68.6096 109.086 70.1381 105.456 75.1602C103.985 77.1945 103.027 79.5327 103.774 82.0435C104.181 83.4093 104.949 84.6492 105.786 85.7896L106.074 86.1779C106.533 86.8039 106.933 87.4274 107.053 88.0912C107.154 88.6472 107.075 89.2355 106.679 89.8803C106.43 90.2861 106.113 90.6501 105.794 91.0129C105.563 91.2746 105.333 91.5358 105.134 91.817C104.734 92.384 104.38 92.9947 104.102 93.6316C103.558 94.8783 103.327 96.2194 103.279 97.572C103.22 99.2038 103.449 100.8 103.676 102.399C103.837 103.532 103.998 104.667 104.063 105.815C104.074 106.016 104.013 106.165 103.927 106.276C103.822 106.411 103.67 106.496 103.496 106.52C103.443 106.527 103.388 106.528 103.333 106.523C103.36 106.633 103.384 106.744 103.405 106.856C103.295 106.714 103.178 106.577 103.054 106.444C103.046 106.44 103.038 106.436 103.031 106.431C102.903 106.361 102.796 106.254 102.728 106.117C102.553 105.954 102.368 105.799 102.173 105.654C101.163 104.898 99.9825 104.45 98.7986 104.435C97.6573 104.421 96.5132 104.81 95.6336 105.633C93.8851 107.269 93.373 109.938 93.3547 112.23C93.3362 114.57 93.8763 117.378 95.9111 118.83C96.7274 119.413 97.7243 119.763 98.7286 119.773C99.5611 119.782 100.358 119.486 101.142 119.205C101.384 119.118 101.625 119.032 101.865 118.954C102.138 118.865 102.386 118.87 102.603 118.935C102.847 119.009 103.055 119.16 103.209 119.362C103.364 119.563 103.465 119.815 103.496 120.079C103.527 120.335 103.492 120.6 103.384 120.839C103.357 120.899 103.328 120.958 103.298 121.015L103.746 121.752C105.46 124.57 107.203 127.336 109.49 129.758C110.802 131.148 112.193 132.46 113.719 133.608L113.939 133.772C114.071 133.869 114.217 133.988 114.373 134.116C114.818 134.481 115.352 134.971 115.85 134.99C115.997 134.996 116.126 134.977 116.244 134.962C116.527 134.924 116.765 134.913 116.999 135.009C117.187 135.086 117.382 135.229 117.583 135.526C117.718 135.727 117.788 135.979 117.788 136.234C117.788 136.491 117.717 136.747 117.592 136.95C117.333 137.37 117.019 137.63 116.679 137.778C116.299 137.943 115.88 137.968 115.444 137.887C114.371 137.686 113.182 136.794 112.426 136.213L112.28 136.1C110.604 134.819 109.016 133.401 107.62 131.815C105.242 129.115 103.107 125.933 102.01 122.456C101.237 122.965 100.282 123.207 99.2829 123.245C97.828 123.3 96.2882 122.925 95.1535 122.385C92.6527 121.197 91.1338 118.948 90.422 116.362C89.5953 113.359 89.864 109.907 90.9105 107.209C90.9408 107.131 90.9725 107.053 91.005 106.974C87.7833 98.7906 86.7927 89.7041 87.0686 80.9715C87.1977 76.8839 87.4754 72.5953 88.4373 68.6088C88.8685 66.822 89.6175 65.1204 90.8136 63.7137C91.4956 62.9115 92.3323 62.287 93.1728 61.6643C93.9009 61.1249 94.6317 60.5866 95.2466 59.9132L95.5374 59.5934C95.6004 59.5238 95.6633 59.4544 95.726 59.385C96.788 58.2117 97.8218 57.0731 99.1105 56.1108C100.605 54.9951 102.254 54.1218 103.968 53.3965C107.659 51.8346 111.633 50.8981 115.563 50.1736C124.067 48.6064 132.796 48.5291 141.196 50.732C145.101 51.7561 148.891 53.1579 152.675 54.558C153.026 54.688 153.377 54.8179 153.728 54.9476C156.669 56.0329 159.611 57.1136 162.552 58.1943C163.92 58.6966 165.287 59.1988 166.654 59.7016C166.951 59.8107 167.241 60.0457 167.406 60.3377C167.568 60.6227 167.616 60.9549 167.485 61.2858C166.647 63.4165 165.588 65.4154 164.3 67.2821C164.748 67.5874 165.129 67.9934 165.417 68.4686C165.781 69.0696 165.997 69.7811 166.012 70.5359C166.061 73.0639 163.766 74.7776 161.862 76.017C161.685 76.1327 161.509 76.2009 161.339 76.2323C163.184 83.3035 164.95 90.3986 166.451 97.5499L166.554 98.0457C168.1 105.53 169.097 113.168 167.635 120.752C166.376 127.282 163.452 133.585 158.883 138.45C154.405 143.217 148.396 146.219 141.894 146.888ZM101.887 103.834C101.091 101.303 100.67 98.5489 100.974 95.9833C101.166 94.3705 101.65 92.8179 102.437 91.3964C102.888 90.5823 103.438 89.8286 104.038 89.1187L104.245 88.8803C104.35 88.7585 104.454 88.6466 104.486 88.5063C104.505 88.4248 104.486 88.3356 104.436 88.2291C104.327 87.9931 104.123 87.7657 103.933 87.5438C103.812 87.4027 103.693 87.2643 103.594 87.1296C101.85 84.7633 100.55 81.9463 100.973 78.9457C101.385 76.0181 103.299 73.2892 105.336 71.2327C109.823 66.7043 116.778 65.6637 122.872 65.9134C126.419 66.0587 129.96 66.6854 133.338 67.7802C135.003 68.3201 136.632 68.9777 138.215 69.7313L138.565 69.9C138.754 69.9919 138.943 70.0847 139.132 70.1777C140.369 70.7859 141.611 71.4 142.954 71.7306C145.577 72.3762 147.356 71.0165 149.226 69.6452C149.867 69.1752 150.517 68.6987 151.209 68.2806L151.351 68.1962C152.599 67.4712 154.091 66.9833 155.524 67.0052C156.77 67.0242 157.971 67.4227 158.949 68.3646C159.15 68.5582 159.265 68.7693 159.32 68.9795C159.428 69.1315 159.515 69.3129 159.572 69.5272C159.922 70.8451 160.271 72.164 160.619 73.4832L160.903 73.2996C161.745 72.7513 162.661 72.1248 163.074 71.2075C163.233 70.8545 163.211 70.2663 163.01 69.8339C162.94 69.6828 162.847 69.5484 162.719 69.4646C162.626 69.4036 162.514 69.3749 162.383 69.3855C162.066 69.4264 161.775 69.3799 161.527 69.2752C161.243 69.1545 161.015 68.9559 160.868 68.7165C160.717 68.4714 160.648 68.1832 160.685 67.8843C160.717 67.6274 160.827 67.359 161.045 67.1069C162.482 65.447 163.691 63.616 164.611 61.6285L158.529 59.3729C156.361 58.569 154.192 57.7662 152.022 56.9665L150.835 56.5289C146.889 55.0782 142.921 53.6604 138.818 52.7264C130.664 50.8703 122.161 51.3066 114.029 53.0537L113.538 53.1601C110.126 53.906 106.668 54.8085 103.536 56.3772C101.999 57.1472 100.537 58.0834 99.2824 59.2663C98.7282 59.7887 98.2271 60.3607 97.7259 60.9318C97.0235 61.7323 96.3202 62.5306 95.4851 63.2049L94.7098 63.8272C93.5566 64.7588 92.5164 65.6665 91.8656 67.1113C91.1852 68.6217 90.8604 70.2904 90.5954 71.9162C89.9271 76.0119 89.6634 80.1731 89.6885 84.3216C89.7311 91.2874 90.7867 98.1112 92.1203 104.911C93.1903 103.376 94.6933 102.186 96.6224 101.932C97.8801 101.767 99.127 102.002 100.208 102.559C100.833 102.881 101.403 103.311 101.887 103.834V103.834ZM99.8661 112.105C98.4574 111.558 96.9783 111.379 95.4879 111.64C95.3318 111.668 95.1828 111.635 95.0577 111.562C94.9308 111.488 94.8308 111.371 94.7765 111.242C94.7137 111.093 94.7105 110.932 94.7659 110.788C94.814 110.664 94.9055 110.543 95.0739 110.462C96.6878 109.69 98.4815 109.349 100.262 109.592L100.438 109.617C101.348 109.752 102.628 110.037 103.588 110.598C104.342 111.038 104.894 111.645 105.031 112.438C105.103 112.852 105.001 113.283 104.763 113.596C104.533 113.898 104.182 114.1 103.727 114.087C102.925 114.064 102.45 113.724 101.879 113.284C101.81 113.231 101.739 113.176 101.665 113.121C101.113 112.707 100.51 112.355 99.8661 112.105Z" fill="black"/>
<path fill-rule="evenodd" clip-rule="evenodd" d="M148.318 128.112C146.762 128.563 145.092 128.603 143.505 128.137C142.066 127.715 140.589 126.785 139.53 125.555C138.589 124.462 137.98 123.134 138.004 121.717C138.006 121.555 138.064 121.42 138.153 121.315C138.249 121.202 138.383 121.124 138.526 121.091C138.674 121.056 138.83 121.068 138.962 121.129C139.083 121.183 139.186 121.276 139.25 121.412C139.413 121.626 139.575 121.836 139.738 122.041C141.046 123.658 142.313 124.866 144.281 125.299C145.349 125.534 146.415 125.43 147.393 125.071C148.441 124.687 149.387 124.012 150.129 123.148C150.465 122.757 150.86 122.598 151.247 122.595C151.686 122.592 152.12 122.796 152.446 123.122C152.767 123.442 152.982 123.878 153.002 124.333C153.019 124.732 152.888 125.15 152.542 125.522C151.4 126.749 149.92 127.648 148.318 128.112ZM148.271 107.866C149.866 108.836 152.297 111.098 150.581 113.503C148.561 115.624 145.652 113.193 144.219 112.093C142.89 111.241 141.396 113.433 142.63 114.428C152.987 122.099 157.19 108.12 149.078 106.726C148.185 106.572 147.853 107.566 148.271 107.866ZM133.347 103.598C132.834 103.269 132.231 103.157 131.563 103.461C131.04 103.699 130.124 104.491 129.486 105.533C129.05 106.245 128.741 107.081 128.805 107.952C128.82 108.154 128.746 108.303 128.628 108.413C128.535 108.5 128.4 108.564 128.243 108.584C128.109 108.601 127.959 108.586 127.837 108.548C127.605 108.475 127.482 108.325 127.435 108.202C126.989 107.016 127.181 105.692 127.682 104.498C128.357 102.886 129.583 101.536 130.387 101.101C131.762 100.356 133.384 100.322 134.76 101.081C135.932 101.727 136.665 102.77 137.394 103.833C137.549 104.059 137.703 104.283 137.862 104.504C138.18 104.945 138.212 105.383 138.089 105.759C137.952 106.175 137.603 106.526 137.168 106.71C136.765 106.879 136.298 106.903 135.884 106.729C135.535 106.581 135.214 106.294 135.011 105.807C134.67 104.985 134.1 104.079 133.347 103.598V103.598ZM159.389 105.425C159.037 105.608 158.763 105.663 158.373 105.546C158.158 105.481 157.945 105.357 157.778 105.191C157.613 105.025 157.494 104.82 157.447 104.592C157.333 104.029 157.026 103.502 156.587 103.159C156.212 102.866 155.739 102.71 155.214 102.798C154.648 102.892 154.109 103.256 153.737 103.684C153.613 103.827 153.515 103.99 153.418 104.152C153.234 104.454 153.057 104.735 152.804 104.957C152.708 105.042 152.564 105.1 152.424 105.1C152.368 105.1 152.31 105.091 152.255 105.074C151.691 104.508 151.583 104.079 151.601 103.653C151.62 103.206 151.796 102.754 152.081 102.332C152.748 101.343 154.014 100.531 154.869 100.348C156.04 100.096 157.202 100.398 158.134 101.052C159.093 101.725 159.804 102.77 160.025 103.947C160.079 104.231 160.056 104.537 159.948 104.802C159.842 105.062 159.659 105.284 159.389 105.425ZM135.928 93.0475C135.226 93.7321 134.395 93.8382 133.553 93.9325C133.086 93.9854 132.713 94.0281 132.346 94.111C131.337 94.3388 130.339 94.682 129.429 95.1763C128.478 95.693 127.441 96.3161 126.696 97.1144C126.518 97.3044 126.351 97.5037 126.184 97.7035C126.031 97.8857 125.884 98.061 125.729 98.2301C125.551 98.4243 125.382 98.6279 125.214 98.8309C125.11 99.0022 125.089 99.0444 125.068 99.0882C125.037 99.1541 125 99.2279 124.958 99.307C124.901 99.4154 124.834 99.534 124.764 99.6416C124.647 99.8382 124.584 99.8923 124.53 99.9165C124.44 99.9566 124.354 99.9764 124.271 99.9657C124.194 99.9557 124.121 99.9183 124.048 99.8573C123.688 99.5524 123.581 99.0522 123.592 98.5212C123.609 97.7153 123.906 96.8231 124.18 96.2747C124.817 95.0003 125.7 93.6755 126.762 92.7244C127.974 91.6387 129.3 90.8167 130.822 90.2504C131.769 89.8983 132.864 89.5751 133.895 89.6159C134.637 89.6453 135.346 89.866 135.931 90.4171C136.29 90.7554 136.463 91.2366 136.463 91.7175C136.463 92.2079 136.284 92.7013 135.928 93.0475ZM160.818 99.3172C160.773 99.3904 160.711 99.4409 160.642 99.4712C160.57 99.503 160.49 99.5122 160.412 99.4991C160.335 99.4862 160.262 99.4513 160.204 99.398C160.149 99.3469 160.106 99.2791 160.087 99.1961C159.621 97.1469 158.715 95.6223 156.783 94.6392C155.832 94.1555 154.738 93.8482 153.703 93.6032C153.403 93.532 153.085 93.4859 152.765 93.4392C151.762 93.2926 150.751 93.1248 150.098 92.3137C149.703 91.8251 149.538 91.2003 149.632 90.6288C149.72 90.0908 150.034 89.5974 150.605 89.3018C152.028 88.5661 153.795 89.288 155.232 89.903C155.338 89.9486 155.443 89.9934 155.545 90.0366C156.95 90.6297 158.231 91.4127 159.284 92.5323C160.119 93.4206 160.894 94.7338 161.205 96.0847C161.465 97.2085 161.404 98.3559 160.818 99.3172Z" fill="black"/>
<path fill-rule="evenodd" clip-rule="evenodd" d="M167.179 109.154C164.614 111.805 160.332 112.566 156.919 111.144C148.156 107.481 152.445 96.0578 159.203 92.9901C160.047 92.7796 161.175 92.2802 162.203 92.1669C162.296 92.1212 162.499 92.2533 162.744 92.1284C170.195 92.9607 171.892 104.533 167.179 109.154M138.915 109.832C136.039 113.649 130.69 114.827 126.32 113.052C117.688 109.651 120.749 99.5214 126.656 95.5501C139.133 90.8601 144.285 102.794 138.915 109.832M120.201 101.374C120.193 101.371 120.185 101.369 120.177 101.365C120.222 101.345 120.268 101.325 120.313 101.304C120.299 101.343 120.283 101.381 120.268 101.42C120.246 101.404 120.226 101.386 120.201 101.374M173.117 97.2481C172.413 97.2496 171.396 97.3654 170.812 97.8542C169.375 93.0031 164.067 88.5134 159.451 91.7872C155.816 92.9566 153.119 95.5501 151.586 98.9981C148.822 97.3533 144.476 98.0557 142.079 100.231C140.509 95.0418 136.646 93.2248 132.048 92.9566C127.029 92.1342 122.027 97.0103 120.466 100.922C119.168 100.774 117.229 100.361 116.008 101.162C108.084 99.0834 94.23 97.9373 92.6191 99.0923C91.4711 99.533 90.8411 102.244 92.4446 102.39C93.8419 102.192 92.2815 100.404 93.69 100.209C101.195 99.7433 108.48 101.255 115.906 101.89C116.569 102.782 118.711 103.08 119.854 102.722C118.054 109.357 121.939 113.872 127.761 115.224C136.775 117.296 144.617 109.229 142.26 100.838C144.991 99.4791 148.132 99.5374 151.106 100.253C146.136 118.554 175.598 117.733 170.997 98.4813C174.059 100.005 174.724 97.5556 173.117 97.2481" fill="black"/>
</svg>
